<svg xmlns="http://www.w3.org/2000/svg" viewBox="0 0 800 600" width="100%" height="100%">
  <defs>
    <linearGradient id="bgGrad" x1="0" y1="0" x2="1" y2="1">
      <stop offset="0%" stop-color="#0a0c12"/>
      <stop offset="100%" stop-color="#050608"/>
    </linearGradient>
    <linearGradient id="goldGrad" x1="0" y1="0" x2="1" y2="0">
      <stop offset="0%" stop-color="#f59e0b"/>
      <stop offset="100%" stop-color="#fbbf24"/>
    </linearGradient>
    <linearGradient id="emeraldGrad" x1="0" y1="0" x2="1" y2="0">
      <stop offset="0%" stop-color="#10b981"/>
      <stop offset="100%" stop-color="#34d399"/>
    </linearGradient>
  </defs>

  <rect width="800" height="600" rx="20" fill="url(#bgGrad)" stroke="rgba(245,158,11,0.25)" stroke-width="1.5"/>

  <!-- Top Header Bar -->
  <rect x="30" y="30" width="740" height="56" rx="12" fill="rgba(255,255,255,0.03)" stroke="rgba(255,255,255,0.08)"/>
  <circle cx="60" cy="58" r="7" fill="#ef4444"/>
  <circle cx="80" cy="58" r="7" fill="#f59e0b"/>
  <circle cx="100" cy="58" r="7" fill="#10b981"/>
  <text x="130" y="63" fill="#f3f4f6" font-family="Inter, sans-serif" font-size="14" font-weight="700" letter-spacing="0.5">JoSAA &amp; CSAB Multi-Round Allocation Engine &#8226; Vivan Strategy Matrix</text>
  <rect x="640" y="44" width="110" height="28" rx="14" fill="rgba(245,158,11,0.15)" stroke="rgba(245,158,11,0.4)"/>
  <text x="662" y="62" fill="#f59e0b" font-family="Inter, sans-serif" font-size="11" font-weight="700">v4.8 ACTIVE</text>

  <!-- Step 1 Card: Rank Normalization -->
  <g transform="translate(50, 115)">
    <rect width="330" height="130" rx="14" fill="rgba(255,255,255,0.02)" stroke="rgba(245,158,11,0.3)" stroke-width="1.5"/>
    <rect x="16" y="16" width="34" height="34" rx="8" fill="rgba(245,158,11,0.15)"/>
    <text x="26" y="39" fill="#f59e0b" font-family="Inter, sans-serif" font-size="16" font-weight="800">01</text>
    <text x="62" y="32" fill="#ffffff" font-family="Inter, sans-serif" font-size="15" font-weight="700">Rank &amp; Quota Auditing</text>
    <text x="62" y="49" fill="#9ca3af" font-family="Inter, sans-serif" font-size="11">CRL vs Category vs HS/OS Delta</text>
    <line x1="16" y1="66" x2="314" y2="66" stroke="rgba(255,255,255,0.06)"/>
    <text x="16" y="90" fill="#d1d5db" font-family="Inter, sans-serif" font-size="12">&#8226; State-of-Eligibility Quota Mapping</text>
    <text x="16" y="112" fill="#d1d5db" font-family="Inter, sans-serif" font-size="12">&#8226; Female Supernumerary Optimization</text>
  </g>

  <!-- Step 2 Card: Choice Tiering -->
  <g transform="translate(420, 115)">
    <rect width="330" height="130" rx="14" fill="rgba(255,255,255,0.02)" stroke="rgba(245,158,11,0.3)" stroke-width="1.5"/>
    <rect x="16" y="16" width="34" height="34" rx="8" fill="rgba(245,158,11,0.15)"/>
    <text x="24" y="39" fill="#f59e0b" font-family="Inter, sans-serif" font-size="16" font-weight="800">02</text>
    <text x="62" y="32" fill="#ffffff" font-family="Inter, sans-serif" font-size="15" font-weight="700">3-Tier Preference Layering</text>
    <text x="62" y="49" fill="#9ca3af" font-family="Inter, sans-serif" font-size="11">Ambition &#8226; Target &#8226; Ironclad Safe</text>
    <line x1="16" y1="66" x2="314" y2="66" stroke="rgba(255,255,255,0.06)"/>
    <text x="16" y="90" fill="#d1d5db" font-family="Inter, sans-serif" font-size="12">&#8226; Dream Tier: Top 7 IITs / NIT Trichy CS</text>
    <text x="16" y="112" fill="#d1d5db" font-family="Inter, sans-serif" font-size="12">&#8226; Core Tier: 100% Guaranteed CS/IT/ECE</text>
  </g>

  <!-- Connection Flow Arrows -->
  <path d="M 380 180 L 420 180" stroke="#f59e0b" stroke-width="2" stroke-dasharray="4 4" fill="none"/>
  <polygon points="416,176 424,180 416,184" fill="#f59e0b"/>

  <path d="M 585 245 L 585 285 L 215 285 L 215 325" stroke="#f59e0b" stroke-width="2" stroke-dasharray="4 4" fill="none"/>
  <polygon points="211,320 215,328 219,320" fill="#f59e0b"/>

  <!-- Step 3 Card: Dynamic Round Float -->
  <g transform="translate(50, 330)">
    <rect width="330" height="130" rx="14" fill="rgba(255,255,255,0.02)" stroke="rgba(245,158,11,0.3)" stroke-width="1.5"/>
    <rect x="16" y="16" width="34" height="34" rx="8" fill="rgba(245,158,11,0.15)"/>
    <text x="24" y="39" fill="#f59e0b" font-family="Inter, sans-serif" font-size="16" font-weight="800">03</text>
    <text x="62" y="32" fill="#ffffff" font-family="Inter, sans-serif" font-size="15" font-weight="700">Float &amp; Slide Protocol</text>
    <text x="62" y="49" fill="#9ca3af" font-family="Inter, sans-serif" font-size="11">Rounds 1 to 6 Active Progression</text>
    <line x1="16" y1="66" x2="314" y2="66" stroke="rgba(255,255,255,0.06)"/>
    <text x="16" y="90" fill="#d1d5db" font-family="Inter, sans-serif" font-size="12">&#8226; Zero Seat Cancellation Risk</text>
    <text x="16" y="112" fill="#d1d5db" font-family="Inter, sans-serif" font-size="12">&#8226; 48-Hr Document Verification Shield</text>
  </g>

  <!-- Step 4 Card: CSAB Special Spot Rounds -->
  <g transform="translate(420, 330)">
    <rect width="330" height="130" rx="14" fill="rgba(16,185,129,0.04)" stroke="rgba(16,185,129,0.4)" stroke-width="1.5"/>
    <rect x="16" y="16" width="34" height="34" rx="8" fill="rgba(16,185,129,0.2)"/>
    <text x="24" y="39" fill="#10b981" font-family="Inter, sans-serif" font-size="16" font-weight="800">04</text>
    <text x="62" y="32" fill="#ffffff" font-family="Inter, sans-serif" font-size="15" font-weight="700">CSAB Spot Round Maximizer</text>
    <text x="62" y="49" fill="#34d399" font-family="Inter, sans-serif" font-size="11">Aggressive Rank Jumps (+15,000 Delta)</text>
    <line x1="16" y1="66" x2="314" y2="66" stroke="rgba(255,255,255,0.06)"/>
    <text x="16" y="90" fill="#d1d5db" font-family="Inter, sans-serif" font-size="12">&#8226; Vacant Seat Conversion Analysis</text>
    <text x="16" y="112" fill="#d1d5db" font-family="Inter, sans-serif" font-size="12">&#8226; Final Upgrades to Elite IIITs &amp; NITs</text>
  </g>

  <path d="M 380 395 L 420 395" stroke="#10b981" stroke-width="2" stroke-dasharray="4 4" fill="none"/>
  <polygon points="416,391 424,395 416,399" fill="#10b981"/>

  <!-- Bottom Outcome Badge Strip -->
  <rect x="50" y="485" width="700" height="80" rx="14" fill="rgba(245,158,11,0.06)" stroke="rgba(245,158,11,0.25)"/>
  <text x="80" y="520" fill="#f59e0b" font-family="Inter, sans-serif" font-size="13" font-weight="700" text-transform="uppercase" letter-spacing="1">Algorithm Result</text>
  <text x="80" y="544" fill="#ffffff" font-family="Inter, sans-serif" font-size="16" font-weight="700">Guaranteed Highest Tier Seat Allocation for Your JEE CRL Rank</text>
  
  <rect x="600" y="505" width="130" height="40" rx="8" fill="#f59e0b"/>
  <text x="618" y="530" fill="#000000" font-family="Inter, sans-serif" font-size="13" font-weight="800">100% SUCCESS</text>
</svg>
